<svg xmlns="http://www.w3.org/2000/svg" width="46" height="56" viewBox="0 0 46 56">
    <g fill="#2962FF" fill-rule="evenodd">
        <path d="M37.365 2.883c.756-.16 1.448-.303 2.14-.455.055-.013.136-.097.137-.147.007-.755.006-1.51.006-2.281-.725.164-1.407.312-2.085.48-.078.02-.188.133-.188.205-.015.712-.01 1.428-.01 2.198zM39.65 56c0-.77.003-1.516-.01-2.262-.002-.065-.13-.163-.213-.182-.436-.105-.875-.192-1.315-.282-.24-.049-.48-.094-.747-.145 0 .756-.005 1.46.005 2.163.002.074.075.2.136.214.7.172 1.403.326 2.143.494zM36.794 2.997V.65c-.512.103-1.003.201-1.494.303-.782.164-.782.166-.782.976v1.495l2.276-.427zM34.518 52.577c0 .764-.004 1.459.006 2.152.001.063.075.17.132.182.705.152 1.412.292 2.138.438v-2.348l-2.276-.424zM31.689 3.898c.726-.118 1.396-.222 2.062-.342.08-.014.208-.116.21-.182.014-.703.01-1.406.01-2.148-.75.132-1.46.255-2.167.388-.047.009-.11.108-.11.167-.006.693-.005 1.386-.005 2.117zM31.129 52.014l-2.265-.323v2.226l2.265.353v-2.256zM23.09 4.953c.734-.07 1.447-.136 2.162-.213.054-.005.14-.09.14-.14.01-.676.006-1.353.006-2.058l-2.309.25v2.161zM22.507 53.151v-1.413c0-.723 0-.728-.717-.796-.52-.05-1.039-.086-1.577-.128v2.145c.76.065 1.507.128 2.294.192zM22.489 2.846l-2.274.196v2.14c.767-.06 1.514-.115 2.274-.173V2.846zM25.97 53.526c.764.1 1.508.199 2.271.298v-2.217l-2.27-.27v2.19zM28.241 2.173l-2.263.3v2.19l2.263-.271v-2.22zM17.331 3.214v2.138c.78-.045 1.53-.088 2.278-.133V3.087l-2.278.127zM19.613 50.777l-2.313-.12c0 .68-.007 1.315.01 1.95.003.067.139.179.222.188.336.04.674.048 1.014.065l1.067.052v-2.135zM11.557 52.632h2.277V50.54h-2.277v2.092zM14.444 52.703h2.275v-2.094h-2.275v2.094zM13.834 5.457V3.371h-2.269v2.086h2.269zM8.658 5.456h2.274V3.364H8.658v2.092zM39.64 5.608l-2.248.42V8.11l2.247-.376V5.608zM37.365 47.887c0 .412-.005.762.001 1.113.004.316-.09.717.065.923.14.184.56.162.858.22.443.085.887.162 1.338.242v-2.121c-.75-.126-1.48-.248-2.262-.377zM42.457 48.783l-2.223-.412v2.133l2.223.455v-2.176zM40.24 7.63l2.214-.417V5.037c-.75.154-1.484.307-2.215.458V7.63zM42.453 2.309c-.705.16-1.398.313-2.086.478-.057.013-.138.093-.138.14-.01.668-.005 1.336-.005 2.028l2.23-.472-.001-2.174zM34.531 8.541l2.256-.337V6.129l-2.256.37V8.54zM36.784 49.867v-2.074l-2.247-.333v2.04l2.247.367zM36.792 52.475v-2.076l-2.257-.378v2.04c.753.137 1.492.274 2.257.414zM36.794 3.527c-.705.128-1.394.25-2.08.386-.072.014-.187.105-.189.162-.012.623-.008 1.246-.008 1.909l2.277-.384V3.527zM25.38 50.778v-1.933l-2.29-.2v1.91c.762.075 1.51.149 2.29.223zM23.08 48.159l2.28.191c.022-.06.035-.08.035-.102.003-.374.004-.747.005-1.121.002-.686 0-.686-.662-.748-.065-.005-.129-.02-.195-.025l-1.464-.1c.002.656.002 1.258.002 1.905zM.018 10.289v1.902c.766.042 1.515.08 2.272.122v-1.898l-2.272-.126zM.017 48.114c.773-.053 1.519-.107 2.275-.158v-1.893l-2.275.144v1.907zM.001 15.133c0 .55-.004 1.13.007 1.709.002.052.11.143.17.144.697.01 1.39.006 2.106.006v-1.86H.001zM.018 19.4h2.27v-1.887H.017V19.4zM2.294 43.684c-.78.044-1.527.087-2.274.128v1.905c.768-.048 1.514-.092 2.274-.139v-1.894zM2.294 22.28H.023v1.885h2.271V22.28zM2.297 31.85H.024v1.847h2.273V31.85zM.017 36.088H2.29V34.23H.017v1.858zM13.842 8.312h-2.277v1.835h2.277V8.312zM10.938 8.306h-2.28v1.85h2.28v-1.85zM8.664 21.878h2.27V20.04h-2.27v1.838zM8.66 35.959h2.28v-1.84H8.66v1.84zM8.048 24.717H5.766v1.852h2.282v-1.852zM8.67 24.732v1.837h2.27v-1.837H8.67zM2.892 24.188h2.261v-1.852H2.892v1.852zM8.044 29.438H5.762v1.845h2.282v-1.845zM10.95 29.432H8.671v1.836h2.277v-1.836zM5.16 31.818H2.892v1.84h2.266v-1.84zM5.15 28.94v-1.86H2.9v1.86H5.15zM2.892 36.022H5.15v-1.833H2.89v1.833zM2.892 47.922l2.257-.106V45.93l-2.257.102v1.889zM8.05 41.202H5.776v1.828H8.05v-1.828zM2.89 12.369h2.252v-1.863H2.89v1.863zM5.765 38.33h2.279v-1.833h-2.28v1.834zM5.15 38.907H2.895v1.844h2.257v-1.844zM11.554 47.692h2.276V45.85h-2.276v1.843zM8.666 45.851v1.839h2.276V45.85H8.666zM5.15 43.131v-1.844H2.893v1.844H5.15zM5.77 15.315v1.848h2.278v-1.848H5.77zM2.887 14.725h2.26v-1.852h-2.26v1.852zM5.142 21.829v-1.87h-2.24v1.87h2.24zM8.054 31.793h-2.29v1.827h2.29v-1.827zM5.772 10.608v1.852h2.277v-1.852H5.772zM2.903 36.536v1.86h2.246v-1.86H2.903zM5.765 47.736h2.279v-1.829h-2.28v1.829zM8.054 48.258h-2.28v1.84h2.28v-1.84zM5.765 45.387H8.04v-1.834H5.765v1.834zM10.94 17.689H8.663v1.844h2.279v-1.844zM8.04 19.515V17.66H5.777v1.854h2.265zM8.664 27.079v1.834h2.277v-1.834H8.664zM11.56 48.198v1.84h2.27v-1.84h-2.27zM11.552 7.79h2.275V5.975h-2.275V7.79zM8.04 24.212v-1.844H5.767v1.844h2.275zM8.665 36.47v1.834h2.272V36.47H8.665z"/>
        <path d="M37.365 2.883c0-.77-.006-1.484.008-2.198.002-.072.112-.185.188-.205.678-.168 1.362-.316 2.087-.48 0 .771.003 1.526-.006 2.28 0 .051-.08.135-.137.146-.69.154-1.383.297-2.14.457zM39.65 56c-.74-.168-1.443-.322-2.142-.493-.061-.014-.135-.14-.136-.214-.012-.704-.006-1.407-.006-2.163.27.052.508.098.747.146.44.09.88.176 1.315.281.084.021.211.118.213.182.014.745.008 1.491.008 2.261zM36.794 2.997l-2.276.429V1.93c0-.811 0-.812.782-.976.49-.104.983-.2 1.494-.304v2.346zM34.518 52.577l2.276.424v2.348c-.726-.146-1.433-.284-2.138-.438-.057-.013-.13-.12-.132-.182-.008-.693-.006-1.388-.006-2.152zM31.689 3.898c0-.733-.003-1.424.004-2.116.002-.059.063-.157.11-.166.707-.135 1.416-.257 2.166-.388 0 .742.006 1.445-.01 2.147-.001.065-.128.167-.21.182-.663.12-1.334.223-2.06.34zM31.129 52.014v2.256l-2.265-.353V51.69l2.265.323zM23.09 4.953V2.792l2.308-.25c0 .705.004 1.382-.006 2.058-.001.05-.088.135-.14.14-.713.079-1.428.145-2.163.213zM22.507 53.151c-.785-.066-1.532-.127-2.295-.192v-2.145c.538.042 1.057.079 1.576.128.72.068.718.073.718.796l.001 1.413zM22.489 2.846v2.162c-.761.057-1.507.115-2.274.172V3.04c.745-.062 1.491-.127 2.274-.194zM25.97 53.526v-2.19c.764.092 1.51.181 2.271.27v2.218c-.763-.099-1.509-.198-2.27-.298zM28.241 2.173v2.219l-2.263.271v-2.19c.74-.097 1.49-.198 2.263-.3zM17.331 3.214l2.278-.126v2.133l-2.278.133v-2.14zM19.613 50.777v2.135l-1.067-.052c-.338-.018-.677-.025-1.014-.065-.083-.01-.22-.12-.222-.189-.017-.634-.01-1.27-.01-1.948.782.039 1.529.077 2.313.119zM11.557 52.632V50.54h2.277v2.092h-2.277zM14.444 52.703v-2.094h2.275v2.094h-2.275zM13.834 5.457h-2.269V3.371h2.269v2.086zM8.658 5.456V3.364h2.274v2.092H8.658zM39.64 5.608v2.126l-2.248.376V6.028l2.247-.42zM37.365 47.887c.782.13 1.511.25 2.262.377v2.12c-.45-.08-.895-.156-1.338-.242-.299-.057-.718-.033-.858-.22-.155-.204-.06-.606-.065-.922-.006-.351-.001-.703-.001-1.113zM42.457 48.783v2.178l-2.223-.455v-2.132c.747.136 1.475.27 2.223.409zM40.24 7.63V5.495c.73-.151 1.464-.304 2.214-.458v2.176c-.723.137-1.457.276-2.215.417zM42.453 2.309v2.174l-2.23.472c0-.692-.003-1.358.005-2.028.001-.05.08-.127.137-.141.69-.164 1.382-.318 2.088-.477zM34.531 8.541v-2.04l2.256-.369v2.075c-.737.108-1.477.218-2.256.334zM36.784 49.867l-2.247-.369v-2.04l2.247.334v2.075zM36.792 52.475c-.765-.142-1.505-.276-2.257-.416v-2.04l2.257.378v2.078zM36.794 3.527V5.6c-.748.126-1.489.25-2.276.384 0-.663-.004-1.287.009-1.909.001-.057.115-.148.188-.162.687-.137 1.376-.259 2.08-.386zM25.38 50.778c-.78-.076-1.527-.147-2.29-.22v-1.91l2.29.2v1.93zM23.08 48.159v-1.907l1.464.1c.065.005.129.02.196.026.662.061.663.061.662.747 0 .374-.003.748-.006 1.122 0 .02-.012.04-.034.102l-2.281-.19zM.018 10.289l2.272.126v1.898l-2.272-.122V10.29zM.017 48.114v-1.908l2.275-.145v1.893c-.756.053-1.502.107-2.275.16zM.001 15.133h2.283v1.859c-.713 0-1.41.004-2.106-.006-.06-.001-.168-.092-.17-.144-.01-.58-.007-1.16-.007-1.71zM.018 19.4v-1.887h2.27V19.4H.017zM2.294 43.684v1.894c-.76.047-1.506.091-2.274.139v-1.905c.747-.041 1.493-.083 2.274-.128zM2.294 22.28v1.885H.023V22.28h2.271zM2.297 31.85v1.847H.024V31.85h2.273zM.017 36.088V34.23H2.29v1.858H.017zM13.842 8.312v1.835h-2.277V8.312h2.277zM10.938 8.306v1.85h-2.28v-1.85h2.28zM8.664 21.878V20.04h2.27v1.838h-2.27zM8.66 35.959v-1.84h2.28v1.84H8.66zM8.048 24.717v1.852H5.766v-1.852h2.282zM8.67 24.732h2.27v1.837H8.67v-1.837zM2.892 24.188v-1.852h2.261v1.852H2.892zM8.044 29.438v1.845H5.762v-1.845h2.282zM10.95 29.432v1.836H8.671v-1.836h2.277zM5.16 31.818v1.84H2.892v-1.84h2.266zM5.15 28.94H2.9v-1.86H5.15v1.86zM2.892 36.022v-1.833H5.15v1.833H2.89zM2.892 47.922v-1.889l2.257-.102v1.885l-2.257.106zM8.05 41.202v1.828H5.776v-1.828H8.05zM2.89 12.369v-1.863h2.252v1.863H2.89zM5.765 38.33v-1.833h2.279v1.834h-2.28zM5.15 38.907v1.844H2.895v-1.844h2.257zM11.554 47.692V45.85h2.276v1.843h-2.276zM8.666 45.851h2.276v1.839H8.666V45.85zM5.15 43.131H2.893v-1.844H5.15v1.844zM5.77 15.315h2.278v1.848H5.77v-1.848zM2.887 14.725v-1.852h2.26v1.852h-2.26zM5.142 21.829h-2.24v-1.87h2.24v1.87zM8.054 31.793v1.827h-2.29v-1.827h2.29zM5.772 10.608h2.277v1.852H5.772v-1.852zM2.903 36.536h2.246v1.86H2.903v-1.86zM5.765 47.736v-1.829h2.279v1.829h-2.28zM8.054 48.258v1.84h-2.28v-1.84h2.28zM5.765 45.387v-1.834H8.04v1.834H5.765zM10.94 17.689v1.844H8.663v-1.844h2.279zM8.04 19.515H5.777V17.66h2.265v1.854zM8.664 27.079h2.277v1.834H8.664v-1.834zM11.56 48.198h2.27v1.84h-2.27v-1.84zM11.552 7.79V5.975h2.275V7.79h-2.275zM8.04 24.212H5.767v-1.844h2.275v1.844zM8.665 36.47h2.272v1.834H8.665V36.47z"/>
        <path fill-rule="nonzero" d="M45.205 36.519c-.142-1.417-.516-2.762-1.23-4.008-.223-.388-.455-.616-.939-.57-.399.038-.808-.027-1.213-.045-.52-.024-1.042-.047-1.58-.073 0-.785-.014-1.534.006-2.282.006-.232-.073-.343-.279-.404-.9-.268-1.796-.559-2.703-.802-.522-.14-1.066-.203-1.613-.304v-.75c0-.867.001-.863.825-1.151 1.43-.5 2.846-1.028 4.059-1.981a8.762 8.762 0 0 0 2.906-4.04c.52-1.47.566-3.001.456-4.54-.085-1.18-.353-2.32-.906-3.375a5.016 5.016 0 0 0-1.849-1.977c-1.681-1.026-3.533-1.302-5.462-1.194-.563.032-1.128.07-1.7.105-.01-.192-.02-.35-.03-.517-.754.096-1.473.185-2.205.276V6.934c.744-.11 1.475-.22 2.208-.33v-2.53l-8.01 1.121v4.849l-5.011.226V8.336c.72-.042 1.425-.082 2.122-.12v-2.73l-8.637.478v4.658H8.662v2.385h2.24v1.844H8.667v2.35h2.882v7.545h2.2v1.826h-2.193v2.87h2.203v1.827h-2.232v7.532H8.67v4.746h2.224v1.824h3.555v4.68c1.952.087 3.861.173 5.82.258v-1.802l2.234.195v-2.998l3.465.266v4.823l8.014 1.122v-5.058c.48.033.905.064 1.33.095 1.47.103 2.928.084 4.368-.304 2.655-.714 4.46-2.3 5.186-5.023.449-1.673.51-3.383.34-5.106zm-4.939-23.344l2.187-.322v2.201l-2.187.27v-2.149zm-.008 5.498l2.185-.206v2.205l-2.185.146v-2.145zM17.36 12.807c.761-.038 1.497-.073 2.253-.109v1.87l-2.253.103v-1.864zm1.368 7.248v1.793h-2.232v-1.793h2.232zm-4.234-7.162h2.22v1.815h-2.22v-1.815zm-1.226 6.622v-1.81h2.242v1.81h-2.242zm.57 23.511H11.6v-1.814h2.24v1.814zm2.31-4.732H13.9v-1.797h2.25v1.797zm.002-2.355h-2.248v-1.796h2.248v1.796zm.072-8.853h2.226v1.824h-2.226v-1.824zm3.4 20.592h-2.258v-1.796h2.257v1.796zm1.951-31.577c.191-.012 6.25-.315 6.981-.334 4.726-.12 4.599 1.922 4.633 3.409.062 2.728-1.07 5.183-6.752 5.624-.192.014-4.795.208-4.862.208v-8.907zM25.45 43.3c-.373-.017-1.852-.087-2.23-.103v-1.8h2.23V43.3zm5.749.412c-.552-.042-2.038-.16-2.228-.174v-1.904c.566.04 1.117.079 1.672.116l.556.04v1.922zm3.11-5.933c-.138.519-.524 2.466-5.086 2.46-1.117 0-7.489-.264-7.652-.264v-8.908c.142 0 4.191.087 4.864.123 7.11.38 7.28 1.759 8.002 4.325.208.736.07 1.519-.128 2.264zm8.144 2.556l-2.184-.256v-2.152c.717.07 1.44.139 2.184.21v2.198z"/>
    </g>
</svg>
