<svg xmlns="http://www.w3.org/2000/svg" width="17" height="19" >
    <path fill="#FFF" d="M4.99 18.304a4.767 4.767 0 0 1-3.381-1.398l-.21-.21a4.786 4.786 0 0 1 0-6.762l8.866-8.866a3.658 3.658 0 0 1 5.167 0 3.657 3.657 0 0 1 0 5.167L7.567 14.1a2.37 2.37 0 0 1-3.348 0 2.37 2.37 0 0 1 0-3.348l6.973-6.972.919.92-6.973 6.971a1.07 1.07 0 0 0 0 1.51c.4.4 1.109.4 1.51 0l7.865-7.865a2.358 2.358 0 0 0 0-3.329 2.357 2.357 0 0 0-3.33 0l-8.865 8.866a3.487 3.487 0 0 0 0 4.924l.21.21a3.488 3.488 0 0 0 4.924 0l8.362-8.362.919.92-8.362 8.361a4.766 4.766 0 0 1-3.381 1.398"/>
</svg>
