<svg xmlns="http://www.w3.org/2000/svg" xmlns:xlink="http://www.w3.org/1999/xlink" width="20" height="21" viewBox="0 0 20 21">
    <defs>
        <path id="a" d="M.907.317c-.5 0-.904.404-.906.903v16.139L0 18.979c.001.5.407.905.907.905h10.034v-7.856h-2.59V9.322h2.59v-2.94c0-1.76 1.597-2.944 2.886-2.944h2.899V5.9h-1.338c-.659 0-1.538.535-1.538 1.193v2.229h2.613v2.706H13.85v7.856h5.125a.907.907 0 0 0 .907-.907V1.225a.907.907 0 0 0-.907-.908H.907z"/>
    </defs>
    <g fill="none" fill-rule="evenodd">
        <mask id="b" fill="#fff">
            <use xlink:href="#a"/>
        </mask>
        <path fill="#000" d="M.907.317c-.5 0-.904.404-.906.903v16.139L0 18.979c.001.5.407.905.907.905h10.034v-7.856h-2.59V9.322h2.59v-2.94c0-1.76 1.597-2.944 2.886-2.944h2.899V5.9h-1.338c-.659 0-1.538.535-1.538 1.193v2.229h2.613v2.706H13.85v7.856h5.125a.907.907 0 0 0 .907-.907V1.225a.907.907 0 0 0-.907-.908H.907z" mask="url(#b)"/>
    </g>
</svg>
