<svg xmlns="http://www.w3.org/2000/svg" width="16" height="21" viewBox="0 0 16 21">
    <defs>
        <linearGradient id="a" x1="44.232%" x2="89.027%" y1="0%" y2="121.14%">
            <stop offset="0%" stop-color="#69A8FF"/>
            <stop offset="100%" stop-color="#4475FF"/>
        </linearGradient>
    </defs>
    <path fill="url(#a)" fill-rule="evenodd" d="M6.301.006a.188.188 0 0 0-.229.23c.21.79.59 2.952-.9 4.775C3.311 7.29-2.73 12.095 1.436 18.386c.952 1.08 2.346 1.945 3.413 2.35a.385.385 0 0 0 .488-.522c-.321-.694-.693-1.703-.665-2.925.042-1.791 1.556-3.041 2.236-3.778.448-.483.961-1.208 1.26-1.647.089-.13.29-.089.32.065.12.6.441 1.688 1.281 2.5 1.223 1.18 2.764 1.957 2.125 4.152-.185.526-.637 1.172-1.002 1.641a.275.275 0 0 0 .303.43c1.043-.342 2.851-1.217 4.116-3.363 1.712-2.904-.137-9.11-1.962-11.228a.277.277 0 0 0-.486.184c.007.814-.12 2.027-1.031 2.027-1.26 0-.993-1.65-.827-2.552.164-.884.314-4.42-4.704-5.714"/>
</svg>
