<svg xmlns="http://www.w3.org/2000/svg" xmlns:xlink="http://www.w3.org/1999/xlink" width="20" height="20" viewBox="0 0 20 20">
    <defs>
        <path id="a" d="M0 0h20v20H0z"/>
    </defs>
    <g fill="none" fill-rule="evenodd">
        <mask id="b" fill="#fff">
            <use xlink:href="#a"/>
        </mask>
        <path fill="#000" d="M17.043 17.042h-2.966v-4.641c0-1.107-.02-2.531-1.541-2.531-1.544 0-1.78 1.206-1.78 2.451v4.721H7.794V7.498h2.844v1.305h.04c.396-.751 1.364-1.542 2.807-1.542 3.004 0 3.559 1.976 3.559 4.547v5.234zM4.449 6.194a1.72 1.72 0 1 1-.003-3.44 1.72 1.72 0 0 1 .003 3.44zM2.963 17.042h2.97V7.498h-2.97v9.544zM18.52 0H1.475C.661 0 0 .645 0 1.442v17.115C0 19.353.661 20 1.475 20H18.52c.816 0 1.48-.647 1.48-1.443V1.442C20 .645 19.335 0 18.52 0z" mask="url(#b)"/>
    </g>
</svg>
