<svg xmlns="http://www.w3.org/2000/svg" xmlns:xlink="http://www.w3.org/1999/xlink" width="58" height="56" viewBox="0 0 58 56">
    <defs>
        <path id="a" d="M0 .08h57.884v55.594H0z"/>
    </defs>
    <g fill="none" fill-rule="evenodd">
        <g transform="translate(0 .246)">
            <mask id="b" fill="#fff">
                <use xlink:href="#a"/>
            </mask>
            <path fill="#326DE6" d="M52.82 12.444c-.33-1.052-1.125-1.907-2.117-2.433L30.513.409c-.529-.263-1.125-.33-1.654-.33-.53 0-1.126 0-1.655.132L7.014 9.88a3.539 3.539 0 0 0-1.985 2.433L.064 33.95a4.129 4.129 0 0 0 .729 3.157L14.76 54.274c.794.788 1.92 1.315 3.044 1.38h22.241c1.192.132 2.317-.394 3.045-1.38l13.967-17.166a4.47 4.47 0 0 0 .794-3.157l-5.03-21.507z" mask="url(#b)"/>
        </g>
        <path fill="#FFF" d="M39.714 36.696a12.599 12.599 0 0 1-3.971 3.946L33.16 34.46c-.132-.526.133-1.053.596-1.25.199-.066.397-.131.596-.131l6.619 1.117c-.331.921-.728 1.776-1.258 2.5zm-8.075 5.722c-.927.197-1.854.328-2.847.328-1.39 0-2.846-.263-4.17-.657l3.244-5.854c.33-.394.86-.526 1.323-.263.199.132.332.263.53.46l3.178 5.723a10.76 10.76 0 0 0-1.258.263zm-15.026-8.156l6.553-1.118c.53 0 1.059.33 1.125.855.066.197.066.46-.066.658l-2.515 6.05c-2.317-1.512-4.17-3.814-5.097-6.445zm1.125-11.115l4.898 4.341c.464.395.53 1.052.133 1.513-.133.197-.265.263-.53.329l-6.42 1.841a13.773 13.773 0 0 1 1.92-8.024zm8.076-5.787l1.323-.263-.33 6.577c0 .591-.53 1.052-1.126 1.052-.198 0-.33-.066-.53-.132l-5.493-3.88c1.72-1.644 3.839-2.828 6.156-3.354zm11.98 3.354l-5.427 3.815c-.463.263-1.125.197-1.456-.264a.594.594 0 0 1-.199-.46l-.397-6.642c2.912.328 5.494 1.578 7.48 3.551zm3.575 6.314c.331 1.38.397 2.762.265 4.143l-6.288-1.776c-.596-.13-.927-.723-.795-1.315.067-.197.133-.329.265-.46l4.964-4.473a13.332 13.332 0 0 1 1.59 3.88zm-10.79 4.275l-1.787.855-1.787-.855-.463-1.908 1.258-1.578h1.985l1.258 1.578-.463 1.908zm19.13 2.038c-.066 0-.132 0-.132-.065 0-.066-.132-.066-.265-.066-.264-.066-.53-.066-.794-.066-.132 0-.265 0-.397-.065h-.066a13.526 13.526 0 0 1-2.251-.395.8.8 0 0 1-.463-.46c.066 0 0 0 0 0l-.53-.132c.265-1.907.132-3.88-.264-5.788a17.758 17.758 0 0 0-2.317-5.393l.397-.394v-.066c0-.197.066-.46.199-.592.595-.526 1.19-.92 1.853-1.315l.397-.198c.265-.131.463-.263.728-.394.066-.066.133-.066.199-.132.066-.065 0-.065 0-.131.596-.46.728-1.25.265-1.842a1.268 1.268 0 0 0-.927-.46c-.331 0-.662.131-.927.329l-.066.065c-.066.066-.133.132-.198.132-.2.197-.398.394-.53.592-.067.131-.199.197-.265.263a8.685 8.685 0 0 1-1.655 1.447c-.132.066-.265.131-.397.131-.066 0-.199 0-.265-.065h-.066l-.53.328c-.53-.526-1.125-1.052-1.654-1.578-2.45-1.907-5.494-3.091-8.605-3.42l-.067-.526v.066c-.198-.132-.265-.33-.33-.527 0-.723 0-1.447.132-2.236v-.066c0-.131.066-.263.066-.394.066-.263.066-.526.132-.79v-.394c.067-.658-.463-1.315-1.125-1.381-.397-.066-.794.131-1.125.46a1.294 1.294 0 0 0-.398.921v.329c0 .263.067.526.133.79.066.13.066.262.066.394v.065c.133.724.133 1.447.133 2.237-.067.197-.133.394-.332.526v.131l-.066.526c-.728.066-1.456.198-2.25.33-3.111.657-5.958 2.301-8.142 4.603l-.397-.263h-.066c-.066 0-.133.066-.265.066s-.265-.066-.397-.132c-.596-.46-1.192-.986-1.655-1.512-.066-.132-.199-.198-.265-.263-.199-.198-.33-.395-.53-.592-.065-.066-.132-.066-.198-.132l-.066-.066a1.59 1.59 0 0 0-.927-.329c-.397 0-.728.132-.927.461-.397.592-.265 1.381.265 1.842.067 0 .067.065.067.065s.132.132.198.132c.198.131.463.263.728.394l.397.198c.662.394 1.324.789 1.854 1.315.132.132.264.395.198.592v-.066l.397.395c-.066.131-.132.197-.198.329-2.052 3.222-2.913 7.037-2.317 10.786l-.53.131c0 .066-.066.066-.066.066-.066.197-.265.329-.463.46-.728.198-1.456.329-2.25.395-.133 0-.266 0-.398.066-.265 0-.53.066-.794.066-.066 0-.133.065-.265.065-.066 0-.066 0-.132.066-.728.131-1.192.79-1.06 1.513.133.592.729.986 1.324.92.133 0 .199 0 .331-.066.067 0 .067 0 .067-.065 0-.066.198 0 .264 0 .265-.066.53-.197.729-.263.132-.066.264-.132.397-.132h.066c.728-.263 1.39-.46 2.184-.591h.066c.2 0 .398.065.53.197.066 0 .066.066.066.066l.596-.066c.993 3.025 2.846 5.722 5.428 7.695.596.46 1.125.855 1.787 1.183l-.33.46c0 .067.065.067.065.067.133.197.133.46.066.658-.264.657-.661 1.315-1.059 1.907v.065c-.066.132-.132.198-.264.33-.133.13-.265.394-.464.657-.066.066-.066.132-.132.197 0 0 0 .066-.066.066-.331.658-.066 1.447.53 1.776.132.065.33.131.463.131.53 0 .992-.328 1.257-.789 0 0 0-.066.066-.066 0-.066.067-.131.133-.197.066-.263.198-.46.265-.724l.132-.394c.199-.723.53-1.381.86-2.039.133-.197.331-.329.53-.394.066 0 .066 0 .066-.066l.265-.526c1.853.723 3.773 1.052 5.759 1.052 1.191 0 2.383-.131 3.574-.46.728-.132 1.457-.395 2.119-.592l.264.46c.066 0 .066 0 .066.066.199.066.398.197.53.395.331.657.662 1.315.86 2.038v.066l.133.394c.066.264.132.527.265.724.066.066.066.131.132.197 0 0 0 .066.066.066.265.46.728.79 1.258.79.198 0 .33-.067.53-.132.264-.132.529-.395.595-.724.066-.328.066-.657-.066-.986 0-.066-.066-.066-.066-.066 0-.066-.066-.131-.133-.197a2.364 2.364 0 0 0-.463-.658c-.066-.131-.132-.197-.265-.329v-.131c-.463-.592-.794-1.25-1.059-1.907-.066-.198-.066-.46.066-.658 0-.066.067-.066.067-.066l-.199-.526c3.376-2.04 5.957-5.196 7.15-8.945l.528.066c.066 0 .066-.066.066-.066a.755.755 0 0 1 .53-.197h.066c.729.132 1.457.329 2.119.592h.066c.132.066.264.131.397.131.265.132.463.264.728.33.066 0 .133.065.265.065.066 0 .066 0 .132.065.133.067.199.067.331.067.596 0 1.126-.395 1.324-.921a1.554 1.554 0 0 0-1.191-1.382z"/>
    </g>
</svg>
