<svg xmlns="http://www.w3.org/2000/svg" xmlns:xlink="http://www.w3.org/1999/xlink" width="50" height="56" viewBox="0 0 50 56">
    <defs>
        <path id="a" d="M0 0h49.822v56H0z"/>
    </defs>
    <g fill="none" fill-rule="evenodd">
        <mask id="b" fill="#fff">
            <use xlink:href="#a"/>
        </mask>
        <path fill="#539E43" d="M31.255 39.692c-9.026 0-10.883-4.116-10.883-7.615 0-.308.258-.617.62-.617h2.681c.31 0 .568.205.568.514.413 2.727 1.598 4.065 7.065 4.065 4.333 0 6.19-.978 6.19-3.292 0-1.339-.517-2.316-7.273-2.985-5.622-.566-9.129-1.8-9.129-6.276 0-4.168 3.507-6.637 9.387-6.637 6.603 0 9.852 2.264 10.263 7.202a.83.83 0 0 1-.153.464c-.105.102-.258.205-.413.205h-2.683a.602.602 0 0 1-.567-.462c-.618-2.83-2.218-3.757-6.447-3.757-4.745 0-5.311 1.647-5.311 2.882 0 1.491.669 1.954 7.065 2.778 6.344.823 9.336 2.006 9.336 6.43-.052 4.528-3.765 7.1-10.316 7.1M24.912 56a4.528 4.528 0 0 1-2.167-.566l-6.86-4.064c-1.031-.567-.515-.771-.206-.875 1.392-.463 1.65-.566 3.094-1.388.155-.104.362-.053.516.05l5.26 3.139c.207.102.465.102.62 0l20.579-11.884c.206-.103.31-.31.31-.566V16.129c0-.257-.104-.463-.31-.566L25.17 3.73c-.207-.103-.465-.103-.62 0L3.97 15.563c-.205.103-.308.36-.308.566v23.717c0 .205.103.463.309.566l5.622 3.24c3.042 1.544 4.951-.256 4.951-2.057V18.187c0-.31.258-.618.619-.618h2.63c.31 0 .62.257.62.618v23.408c0 4.064-2.218 6.43-6.086 6.43-1.187 0-2.114 0-4.745-1.285l-5.416-3.087A4.34 4.34 0 0 1 0 39.896V16.18c0-1.543.827-2.984 2.167-3.756L22.746.54c1.289-.72 3.042-.72 4.33 0l20.58 11.884a4.34 4.34 0 0 1 2.166 3.756v23.716a4.337 4.337 0 0 1-2.166 3.757l-20.58 11.884a5.277 5.277 0 0 1-2.164.463" mask="url(#b)"/>
    </g>
</svg>
