<svg xmlns="http://www.w3.org/2000/svg" width="56" height="56" viewBox="0 0 56 56">
    <g fill="none" fill-rule="nonzero">
        <path fill="#E55B2D" d="M31.09 8.484v8.486l14.695 8.485V16.97L31.089 8.484zM1.696 16.97v8.485l7.348 4.241v-8.484L1.697 16.97zm22.043 4.242l-7.347 4.243v25.454l7.347 4.242v-16.97l7.35 4.243V33.94l-7.35-4.243v-8.484z"/>
        <path fill="#ED8E24" d="M31.09 8.484L9.044 21.212v8.484l14.695-8.484v8.484l7.35-4.241V8.485zm22.043 4.243l-7.348 4.243v8.485l7.348-4.243v-8.485zm-14.696 16.97l-7.348 4.242v8.485l7.348-4.242v-8.486zm-7.348 12.727l-7.349-4.242v16.97l7.35-4.243v-8.485z"/>
        <path fill="#F8BF3C" d="M31.09 0L1.696 16.97l7.348 4.242L31.089 8.484l14.696 8.486 7.348-4.243L31.09 0zm0 25.455l-7.35 4.241 7.35 4.243 7.347-4.243-7.348-4.241z"/>
    </g>
</svg>
