<svg xmlns="http://www.w3.org/2000/svg" width="56" height="56" viewBox="0 0 56 56">
    <g fill="none" fill-rule="evenodd">
        <path fill="#F7DF1F" d="M0 0h56v56H0z"/>
        <path fill="#000" fill-rule="nonzero" d="M14.222 46.821l4.334-2.551c.837 1.442 1.597 2.662 3.422 2.662 1.748 0 2.851-.665 2.851-3.254V26.074h5.322V43.75c0 5.363-3.231 7.804-7.945 7.804-4.258 0-6.73-2.145-7.984-4.734m18.82-.554l4.334-2.441c1.14 1.812 2.623 3.144 5.246 3.144 2.205 0 3.611-1.073 3.611-2.553 0-1.775-1.444-2.404-3.877-3.439l-1.33-.555c-3.84-1.59-6.387-3.587-6.387-7.803 0-3.883 3.04-6.842 7.793-6.842 3.384 0 5.817 1.146 7.565 4.142l-4.144 2.59c-.912-1.591-1.9-2.22-3.421-2.22-1.559 0-2.547.962-2.547 2.22 0 1.552.988 2.181 3.269 3.143l1.33.555c4.525 1.886 7.072 3.809 7.072 8.136 0 4.66-3.764 7.212-8.82 7.212-4.942 0-8.136-2.293-9.694-5.29"/>
    </g>
</svg>
