<svg xmlns="http://www.w3.org/2000/svg" width="140" height="31" viewBox="0 0 140 31">
    <g fill="#2962FF" fill-rule="evenodd">
        <path fill-rule="nonzero" d="M43.4 21.32c.76 1.04 2.36 1.72 3.68 1.72 2.44 0 4.28-1.8 4.28-4.72 0-2.88-1.84-4.68-4.28-4.68-1.32 0-2.92.72-3.68 1.76v5.92zm0 6.68h-6.16V1.32h6.16v9.64C44.92 9.04 47 8.2 49.12 8.2c4.84 0 8.52 3.8 8.52 10.12 0 6.56-3.76 10.16-8.52 10.16-2.16 0-4.12-.88-5.72-2.72V28zm26.72.48c-6.56 0-10.48-4.72-10.48-10.16S63.56 8.2 70.12 8.2c6.64 0 10.56 4.68 10.56 10.12 0 5.44-3.92 10.16-10.56 10.16zm0-5.44c2.72 0 4.24-2.12 4.24-4.72 0-2.56-1.52-4.68-4.24-4.68-2.64 0-4.16 2.12-4.16 4.68 0 2.6 1.52 4.72 4.16 4.72zM90.08 28h-6.16V8.68h6.16v2.36c1.28-1.56 3.76-2.88 6.04-2.88v5.92c-.36-.12-.88-.16-1.52-.16-1.6 0-3.72.68-4.52 1.76V28zm20.36 0h-6.56l-7.6-19.32h6.48l4.4 12.24 4.36-12.24h6.52L110.44 28zm18.68.48c-6.56 0-10.48-4.72-10.48-10.16S122.56 8.2 129.12 8.2c6.64 0 10.56 4.68 10.56 10.12 0 5.44-3.92 10.16-10.56 10.16zm0-5.44c2.72 0 4.24-2.12 4.24-4.72 0-2.56-1.52-4.68-4.24-4.68-2.64 0-4.16 2.12-4.16 4.68 0 2.6 1.52 4.72 4.16 4.72z"/>
        <path d="M25.555 13.242C24.211 4.702 16.19-1.133 7.64.21a25.155 25.155 0 0 0-2.1 5.483 6.263 6.263 0 0 0-5.496 5.49 6.26 6.26 0 0 0 5.497 6.944 25.438 25.438 0 0 1 0-12.434 6.24 6.24 0 0 1 7.004 6.217 6.242 6.242 0 0 1-7.004 6.217 25.346 25.346 0 0 0 7.865 12.833l.002.008c8.11-1.764 13.437-9.537 12.148-17.726"/>
    </g>
</svg>
